<svg width="371" height="98" viewBox="0 0 371 98" fill="none" xmlns="http://www.w3.org/2000/svg">
<path d="M88.1643 81.768C84.5483 81.768 81.8923 80.856 80.1963 79.032C78.5003 77.208 77.6523 74.184 77.6523 69.96C77.6523 66.6 78.2123 62.984 79.3323 59.112C80.4843 55.24 82.3083 51.928 84.8043 49.176C87.3323 46.392 90.5323 45 94.4043 45C96.8043 45 98.7403 45.528 100.212 46.584C101.684 47.64 102.42 49.256 102.42 51.432C102.42 52.808 102.148 53.896 101.604 54.696C101.06 55.464 100.212 55.848 99.0603 55.848C97.9083 55.848 96.9963 55.432 96.3243 54.6C96.9003 54.312 97.4123 53.736 97.8603 52.872C98.3083 52.008 98.5323 51.112 98.5323 50.184C98.5323 49.32 98.2923 48.616 97.8123 48.072C97.3643 47.528 96.6283 47.256 95.6043 47.256C93.9083 47.256 92.2923 48.424 90.7563 50.76C89.2203 53.064 87.9723 55.976 87.0123 59.496C86.0843 63.016 85.6203 66.408 85.6203 69.672C85.6203 72.104 86.0363 73.96 86.8683 75.24C87.7003 76.52 89.2043 77.16 91.3803 77.16C93.2683 77.16 95.0123 76.744 96.6123 75.912C98.2123 75.08 99.5883 73.896 100.74 72.36L101.844 72.84C101.044 74.856 99.8603 76.536 98.2923 77.88C96.7243 79.224 95.0443 80.216 93.2523 80.856C91.4603 81.464 89.7643 81.768 88.1643 81.768ZM108.232 81.288C106.696 81.288 105.448 80.808 104.488 79.848C103.56 78.888 103.096 77.448 103.096 75.528C103.096 74.728 103.224 73.688 103.48 72.408L108.616 48.36L115.72 47.4L110.2 73.32C110.072 73.8 110.008 74.312 110.008 74.856C110.008 75.496 110.152 75.96 110.44 76.248C110.76 76.504 111.272 76.632 111.976 76.632C112.904 76.632 113.768 76.248 114.568 75.48C115.368 74.68 115.944 73.656 116.296 72.408H118.312C117.128 75.864 115.608 78.216 113.752 79.464C111.896 80.68 110.056 81.288 108.232 81.288ZM127.173 54.408C126.117 54.408 125.221 54.04 124.485 53.304C123.749 52.568 123.381 51.672 123.381 50.616C123.381 49.56 123.749 48.664 124.485 47.928C125.221 47.16 126.117 46.776 127.173 46.776C128.229 46.776 129.125 47.16 129.861 47.928C130.629 48.664 131.013 49.56 131.013 50.616C131.013 51.672 130.629 52.568 129.861 53.304C129.125 54.04 128.229 54.408 127.173 54.408ZM123.909 81.288C122.373 81.288 121.125 80.808 120.165 79.848C119.237 78.888 118.773 77.448 118.773 75.528C118.773 74.728 118.901 73.688 119.157 72.408L122.421 57H129.333L125.877 73.32C125.749 73.8 125.685 74.312 125.685 74.856C125.685 75.496 125.829 75.96 126.117 76.248C126.437 76.504 126.949 76.632 127.653 76.632C128.581 76.632 129.445 76.248 130.245 75.48C131.045 74.68 131.621 73.656 131.973 72.408H133.989C132.805 75.864 131.285 78.216 129.429 79.464C127.573 80.68 125.733 81.288 123.909 81.288ZM141.697 81.288C139.329 81.288 137.489 80.68 136.177 79.464C134.865 78.216 134.209 76.28 134.209 73.656C134.209 71.448 134.641 69.016 135.505 66.36C136.401 63.704 137.809 61.416 139.729 59.496C141.681 57.544 144.145 56.568 147.121 56.568C149.041 56.568 150.401 56.984 151.201 57.816C152.033 58.648 152.449 59.704 152.449 60.984C152.449 62.104 152.209 62.968 151.729 63.576C151.249 64.184 150.641 64.488 149.905 64.488C149.361 64.488 148.801 64.296 148.225 63.912C148.609 62.856 148.801 61.912 148.801 61.08C148.801 60.472 148.689 59.992 148.465 59.64C148.241 59.288 147.905 59.112 147.457 59.112C146.497 59.112 145.537 59.896 144.577 61.464C143.617 63.032 142.833 64.936 142.225 67.176C141.617 69.416 141.313 71.432 141.313 73.224C141.313 74.792 141.585 75.864 142.129 76.44C142.673 76.984 143.553 77.256 144.769 77.256C146.497 77.256 147.969 76.856 149.185 76.056C150.433 75.256 151.793 74.04 153.265 72.408H154.897C151.345 78.328 146.945 81.288 141.697 81.288ZM174.183 81.288C172.199 81.288 170.695 80.824 169.671 79.896C168.647 78.936 168.135 77.576 168.135 75.816C168.135 75.048 168.231 74.216 168.423 73.32L168.807 71.448C168.935 70.904 168.999 70.312 168.999 69.672C168.999 68.136 168.423 67.368 167.271 67.368C166.759 67.368 166.215 67.512 165.639 67.8C165.095 68.088 164.455 68.536 163.719 69.144L161.223 81H154.311L161.271 48.36L168.375 47.4L164.775 64.296L174.039 57H178.791L169.191 63.672C169.671 63.544 170.199 63.48 170.775 63.48C172.503 63.48 173.815 64.008 174.711 65.064C175.607 66.12 176.055 67.464 176.055 69.096C176.055 69.768 175.991 70.376 175.863 70.92L175.335 73.32C175.175 73.896 175.095 74.408 175.095 74.856C175.095 76.04 175.719 76.632 176.967 76.632C177.671 76.632 178.119 76.584 178.311 76.488C178.503 76.392 178.615 76.344 178.647 76.344C178.583 77.4 178.279 78.296 177.735 79.032C177.223 79.768 176.615 80.328 175.911 80.712C175.239 81.096 174.663 81.288 174.183 81.288Z" fill="#FF0099"/>
<path d="M192.792 48.936C190.776 49 189.224 49.768 188.136 51.24C187.08 52.712 186.552 55.256 186.552 58.872C186.552 60.056 186.664 60.888 186.888 61.368C187.112 61.816 187.224 62.072 187.224 62.136C185.496 62.136 184.2 61.784 183.336 61.08C182.504 60.344 182.088 59.144 182.088 57.48C182.088 55.208 182.648 53.144 183.768 51.288C184.888 49.4 186.664 47.88 189.096 46.728C191.56 45.576 194.68 45 198.456 45C199.224 45 200.248 45.08 201.528 45.24C203.832 45.464 205.464 45.576 206.424 45.576C208.12 45.576 209.56 45.384 210.744 45C210.648 45.288 210.472 45.928 210.216 46.92C209.96 47.88 209.496 48.712 208.824 49.416C208.184 50.088 207.304 50.536 206.184 50.76C204.296 50.76 202.056 50.456 199.464 49.848L197.448 59.4H204.456L203.688 62.952H196.68L192.792 81H185.88L192.792 48.936ZM211.319 81.288C209.783 81.288 208.535 80.808 207.575 79.848C206.647 78.888 206.183 77.448 206.183 75.528C206.183 74.728 206.311 73.688 206.567 72.408L211.703 48.36L218.807 47.4L213.287 73.32C213.159 73.8 213.095 74.312 213.095 74.856C213.095 75.496 213.239 75.96 213.527 76.248C213.847 76.504 214.359 76.632 215.063 76.632C215.991 76.632 216.855 76.248 217.655 75.48C218.455 74.68 219.031 73.656 219.383 72.408H221.399C220.215 75.864 218.695 78.216 216.839 79.464C214.983 80.68 213.143 81.288 211.319 81.288ZM229.252 81.192C226.884 81.192 225.012 80.584 223.636 79.368C222.26 78.152 221.572 76.232 221.572 73.608C221.572 71.432 222.02 69.016 222.916 66.36C223.812 63.704 225.252 61.416 227.236 59.496C229.22 57.544 231.716 56.568 234.724 56.568C238.82 56.568 240.868 59.128 240.868 64.248V64.296C240.964 64.328 241.14 64.344 241.396 64.344C242.452 64.344 243.668 64.072 245.044 63.528C246.42 62.952 247.668 62.264 248.788 61.464L249.22 62.76C248.292 63.752 247.076 64.6 245.572 65.304C244.1 65.976 242.484 66.456 240.724 66.744C240.468 69.656 239.812 72.2 238.756 74.376C237.7 76.552 236.34 78.232 234.676 79.416C233.012 80.6 231.204 81.192 229.252 81.192ZM231.172 76.872C231.94 76.872 232.708 76.44 233.476 75.576C234.244 74.68 234.916 73.48 235.492 71.976C236.068 70.44 236.484 68.744 236.74 66.888C235.876 66.696 235.444 66.024 235.444 64.872C235.444 63.56 235.94 62.696 236.932 62.28C236.868 61.224 236.708 60.504 236.452 60.12C236.196 59.704 235.748 59.496 235.108 59.496C234.052 59.496 233.028 60.264 232.036 61.8C231.044 63.336 230.244 65.176 229.636 67.32C229.028 69.464 228.724 71.352 228.724 72.984C228.724 74.52 228.9 75.56 229.252 76.104C229.604 76.616 230.244 76.872 231.172 76.872ZM253.082 81.288C250.714 81.288 248.874 80.68 247.562 79.464C246.25 78.216 245.594 76.28 245.594 73.656C245.594 71.448 246.026 69.016 246.89 66.36C247.786 63.704 249.194 61.416 251.114 59.496C253.066 57.544 255.53 56.568 258.506 56.568C260.426 56.568 261.786 56.984 262.586 57.816C263.418 58.648 263.834 59.704 263.834 60.984C263.834 62.104 263.594 62.968 263.114 63.576C262.634 64.184 262.026 64.488 261.29 64.488C260.746 64.488 260.186 64.296 259.61 63.912C259.994 62.856 260.186 61.912 260.186 61.08C260.186 60.472 260.074 59.992 259.85 59.64C259.626 59.288 259.29 59.112 258.842 59.112C257.882 59.112 256.922 59.896 255.962 61.464C255.002 63.032 254.218 64.936 253.61 67.176C253.002 69.416 252.698 71.432 252.698 73.224C252.698 74.792 252.97 75.864 253.514 76.44C254.058 76.984 254.938 77.256 256.154 77.256C257.882 77.256 259.354 76.856 260.57 76.056C261.818 75.256 263.178 74.04 264.65 72.408H266.282C262.73 78.328 258.33 81.288 253.082 81.288ZM285.568 81.288C283.584 81.288 282.08 80.824 281.056 79.896C280.032 78.936 279.52 77.576 279.52 75.816C279.52 75.048 279.616 74.216 279.808 73.32L280.192 71.448C280.32 70.904 280.384 70.312 280.384 69.672C280.384 68.136 279.808 67.368 278.656 67.368C278.144 67.368 277.6 67.512 277.024 67.8C276.48 68.088 275.84 68.536 275.104 69.144L272.608 81H265.696L272.656 48.36L279.76 47.4L276.16 64.296L285.424 57H290.176L280.576 63.672C281.056 63.544 281.584 63.48 282.16 63.48C283.888 63.48 285.2 64.008 286.096 65.064C286.992 66.12 287.44 67.464 287.44 69.096C287.44 69.768 287.376 70.376 287.248 70.92L286.72 73.32C286.56 73.896 286.48 74.408 286.48 74.856C286.48 76.04 287.104 76.632 288.352 76.632C289.056 76.632 289.504 76.584 289.696 76.488C289.888 76.392 290 76.344 290.032 76.344C289.968 77.4 289.664 78.296 289.12 79.032C288.608 79.768 288 80.328 287.296 80.712C286.624 81.096 286.048 81.288 285.568 81.288Z" fill="#5A8BFF"/>
<path d="M353.284 30.9885V30.9888V46.0035V46.0038C353.284 46.7232 353.065 47.4232 352.659 48.0151C352.253 48.6065 351.681 49.0618 351.019 49.3289C350.357 49.5959 349.63 49.6647 348.93 49.5281C348.23 49.3916 347.583 49.055 347.071 48.5551L353.284 30.9885ZM353.284 30.9885C353.284 30.2691 353.065 29.569 352.659 28.9772C352.253 28.3858 351.681 27.9305 351.019 27.6634C350.357 27.3964 349.63 27.3275 348.93 27.4641C348.23 27.6006 347.583 27.9373 347.071 28.4371C347.071 28.4372 347.071 28.4372 347.071 28.4373C347.071 28.4377 347.07 28.4381 347.07 28.4385L342.153 33.2355L341.701 33.6769V34.3091V42.6832V43.3153L342.153 43.7568L347.07 48.5538L353.284 30.9885ZM367.45 38.4961V38.4965C367.452 43.9578 366.018 49.3303 363.285 54.1017C360.551 58.8733 356.607 62.886 351.825 65.7536C347.043 68.6213 341.585 70.2469 335.972 70.4728C330.363 70.6984 324.791 69.5191 319.786 67.0493L319.285 66.7886L318.785 66.5286L318.238 66.6619L302.595 70.4721L302.592 70.4727C302.497 70.496 302.397 70.499 302.3 70.4812C302.204 70.4635 302.114 70.4258 302.038 70.3728C301.962 70.3199 301.901 70.2536 301.858 70.1803C301.823 70.1211 301.8 70.058 301.789 69.9937V69.8684L301.817 69.7064L305.707 54.5066L305.853 53.9394L305.575 53.4239L305.31 52.9316C303.447 49.3362 302.298 45.4313 301.921 41.4222L301.814 39.8771L301.785 38.4808C301.789 30.0125 305.238 21.8843 311.388 15.8845C317.543 9.87978 325.898 6.5 334.617 6.5C343.337 6.5 351.692 9.87978 357.847 15.8845C364 21.8879 367.45 30.0223 367.45 38.4961ZM317.66 26.0878C316.57 27.1513 315.951 28.6017 315.951 30.1221V46.8702C315.951 48.3906 316.57 49.841 317.66 50.9045C318.749 51.9668 320.218 52.5572 321.743 52.5572H334.617C336.142 52.5572 337.611 51.9668 338.7 50.9045C339.79 49.841 340.409 48.3906 340.409 46.8702V30.1221C340.409 28.6017 339.79 27.1513 338.7 26.0878C337.611 25.0255 336.142 24.4351 334.617 24.4351H321.743C320.218 24.4351 318.749 25.0255 317.66 26.0878Z" fill="#979797" fill-opacity="0.62" stroke="#5A8BFF" stroke-width="3"/>
<path d="M355.334 25.9885V25.9888V41.0035V41.0038C355.333 41.7232 355.114 42.4232 354.709 43.0151C354.303 43.6065 353.731 44.0618 353.068 44.3289C352.406 44.5959 351.68 44.6647 350.98 44.5281C350.28 44.3916 349.633 44.055 349.121 43.5551L355.334 25.9885ZM355.334 25.9885C355.333 25.2691 355.114 24.569 354.709 23.9772C354.303 23.3858 353.731 22.9305 353.068 22.6634C352.406 22.3964 351.68 22.3275 350.98 22.4641C350.28 22.6006 349.633 22.9373 349.121 23.4371C349.121 23.4372 349.121 23.4372 349.121 23.4373C349.12 23.4377 349.12 23.4381 349.12 23.4385L344.203 28.2355L343.75 28.6769V29.3091V37.6832V38.3153L344.203 38.7568L349.12 43.5538L355.334 25.9885ZM369.5 33.4961V33.4965C369.501 38.9578 368.068 44.3303 365.334 49.1017C362.6 53.8733 358.656 57.886 353.875 60.7536C349.093 63.6213 343.635 65.2469 338.021 65.4728C332.413 65.6984 326.841 64.5191 321.835 62.0493L321.335 61.7886L320.835 61.5286L320.287 61.6619L304.644 65.4721L304.642 65.4727C304.547 65.496 304.447 65.499 304.35 65.4812C304.253 65.4635 304.164 65.4258 304.087 65.3728C304.011 65.3199 303.951 65.2536 303.908 65.1803C303.873 65.1211 303.85 65.058 303.839 64.9937V64.8684L303.867 64.7064L307.757 49.5066L307.902 48.9394L307.625 48.4239L307.36 47.9316C305.497 44.3362 304.347 40.4313 303.971 36.4222L303.863 34.8771L303.834 33.4808C303.838 25.0125 307.288 16.8843 313.438 10.8845C319.592 4.87978 327.948 1.5 336.667 1.5C345.387 1.5 353.742 4.87978 359.897 10.8845C366.05 16.8879 369.5 25.0223 369.5 33.4961ZM319.71 21.0878C318.62 22.1513 318.001 23.6017 318.001 25.1221V41.8702C318.001 43.3906 318.62 44.841 319.71 45.9045C320.799 46.9668 322.268 47.5572 323.792 47.5572H336.667C338.191 47.5572 339.66 46.9668 340.749 45.9045C341.839 44.841 342.459 43.3906 342.459 41.8702V25.1221C342.459 23.6017 341.839 22.1513 340.749 21.0878C339.66 20.0255 338.191 19.4351 336.667 19.4351H323.792C322.268 19.4351 320.799 20.0255 319.71 21.0878Z" stroke="#FF0099" stroke-width="3"/>
</svg>
