<svg width="377" height="94" viewBox="0 0 377 94" fill="none" xmlns="http://www.w3.org/2000/svg">
<path d="M359.284 30.9885V30.9888V46.0035V46.0038C359.284 46.7232 359.065 47.4232 358.659 48.0151C358.253 48.6065 357.681 49.0618 357.019 49.3289C356.357 49.5959 355.63 49.6647 354.93 49.5281C354.23 49.3916 353.583 49.055 353.071 48.5551L359.284 30.9885ZM359.284 30.9885C359.284 30.2691 359.065 29.569 358.659 28.9772C358.253 28.3858 357.681 27.9305 357.019 27.6634C356.357 27.3964 355.63 27.3275 354.93 27.4641C354.23 27.6006 353.583 27.9373 353.071 28.4371C353.071 28.4372 353.071 28.4372 353.071 28.4373C353.071 28.4377 353.07 28.4381 353.07 28.4385L348.153 33.2355L347.701 33.6769V34.3091V42.6832V43.3153L348.153 43.7568L353.07 48.5538L359.284 30.9885ZM373.45 38.4961V38.4965C373.452 43.9578 372.018 49.3303 369.285 54.1017C366.551 58.8733 362.607 62.886 357.825 65.7536C353.043 68.6213 347.585 70.2469 341.972 70.4728C336.363 70.6984 330.791 69.5191 325.786 67.0493L325.285 66.7886L324.785 66.5286L324.238 66.6619L308.595 70.4721L308.592 70.4727C308.497 70.496 308.397 70.499 308.3 70.4812C308.204 70.4635 308.114 70.4258 308.038 70.3728C307.962 70.3199 307.901 70.2536 307.858 70.1803C307.823 70.1211 307.8 70.058 307.789 69.9937V69.8684L307.817 69.7064L311.707 54.5066L311.853 53.9394L311.575 53.4239L311.31 52.9316C309.447 49.3362 308.298 45.4313 307.921 41.4222L307.814 39.8771L307.785 38.4808C307.789 30.0125 311.238 21.8843 317.388 15.8845C323.543 9.87978 331.898 6.5 340.617 6.5C349.337 6.5 357.692 9.87978 363.847 15.8845C370 21.8879 373.45 30.0223 373.45 38.4961ZM323.66 26.0878C322.57 27.1513 321.951 28.6017 321.951 30.1221V46.8702C321.951 48.3906 322.57 49.841 323.66 50.9045C324.749 51.9668 326.218 52.5572 327.743 52.5572H340.617C342.142 52.5572 343.611 51.9668 344.7 50.9045C345.79 49.841 346.409 48.3906 346.409 46.8702V30.1221C346.409 28.6017 345.79 27.1513 344.7 26.0878C343.611 25.0255 342.142 24.4351 340.617 24.4351H327.743C326.218 24.4351 324.749 25.0255 323.66 26.0878Z" fill="#979797" fill-opacity="0.62" stroke="#5A8BFF" stroke-width="3"/>
<path d="M361.334 25.9885V25.9888V41.0035V41.0038C361.333 41.7232 361.114 42.4232 360.709 43.0151C360.303 43.6065 359.731 44.0618 359.068 44.3289C358.406 44.5959 357.68 44.6647 356.98 44.5281C356.28 44.3916 355.633 44.055 355.121 43.5551L361.334 25.9885ZM361.334 25.9885C361.333 25.2691 361.114 24.569 360.709 23.9772C360.303 23.3858 359.731 22.9305 359.068 22.6634C358.406 22.3964 357.68 22.3275 356.98 22.4641C356.28 22.6006 355.633 22.9373 355.121 23.4371C355.121 23.4372 355.121 23.4372 355.121 23.4373C355.12 23.4377 355.12 23.4381 355.12 23.4385L350.203 28.2355L349.75 28.6769V29.3091V37.6832V38.3153L350.203 38.7568L355.12 43.5538L361.334 25.9885ZM375.5 33.4961V33.4965C375.501 38.9578 374.068 44.3303 371.334 49.1017C368.6 53.8733 364.656 57.886 359.875 60.7536C355.093 63.6213 349.635 65.2469 344.021 65.4728C338.413 65.6984 332.841 64.5191 327.835 62.0493L327.335 61.7886L326.835 61.5286L326.287 61.6619L310.644 65.4721L310.642 65.4727C310.547 65.496 310.447 65.499 310.35 65.4812C310.253 65.4635 310.164 65.4258 310.087 65.3728C310.011 65.3199 309.951 65.2536 309.908 65.1803C309.873 65.1211 309.85 65.058 309.839 64.9937V64.8684L309.867 64.7064L313.757 49.5066L313.902 48.9394L313.625 48.4239L313.36 47.9316C311.497 44.3362 310.347 40.4313 309.971 36.4222L309.863 34.8771L309.834 33.4808C309.838 25.0125 313.288 16.8843 319.438 10.8845C325.592 4.87978 333.948 1.5 342.667 1.5C351.387 1.5 359.742 4.87978 365.897 10.8845C372.05 16.8879 375.5 25.0223 375.5 33.4961ZM325.71 21.0878C324.62 22.1513 324.001 23.6017 324.001 25.1221V41.8702C324.001 43.3906 324.62 44.841 325.71 45.9045C326.799 46.9668 328.268 47.5572 329.792 47.5572H342.667C344.191 47.5572 345.66 46.9668 346.749 45.9045C347.839 44.841 348.459 43.3906 348.459 41.8702V25.1221C348.459 23.6017 347.839 22.1513 346.749 21.0878C345.66 20.0255 344.191 19.4351 342.667 19.4351H329.792C328.268 19.4351 326.799 20.0255 325.71 21.0878Z" stroke="#FF0099" stroke-width="3"/>
<path d="M29.952 84.024C25.1307 84.024 21.5893 82.808 19.328 80.376C17.0667 77.944 15.936 73.912 15.936 68.28C15.936 63.8 16.6827 58.9787 18.176 53.816C19.712 48.6533 22.144 44.2373 25.472 40.568C28.8427 36.856 33.1093 35 38.272 35C41.472 35 44.0533 35.704 46.016 37.112C47.9787 38.52 48.96 40.6747 48.96 43.576C48.96 45.4107 48.5973 46.8613 47.872 47.928C47.1467 48.952 46.016 49.464 44.48 49.464C42.944 49.464 41.728 48.9093 40.832 47.8C41.6 47.416 42.2827 46.648 42.88 45.496C43.4773 44.344 43.776 43.1493 43.776 41.912C43.776 40.76 43.456 39.8213 42.816 39.096C42.2187 38.3707 41.2373 38.008 39.872 38.008C37.6107 38.008 35.456 39.5653 33.408 42.68C31.36 45.752 29.696 49.6347 28.416 54.328C27.1787 59.0213 26.56 63.544 26.56 67.896C26.56 71.1387 27.1147 73.6133 28.224 75.32C29.3333 77.0267 31.3387 77.88 34.24 77.88C36.7573 77.88 39.0827 77.3253 41.216 76.216C43.3493 75.1067 45.184 73.528 46.72 71.48L48.192 72.12C47.1253 74.808 45.5467 77.048 43.456 78.84C41.3653 80.632 39.1253 81.9547 36.736 82.808C34.3467 83.6187 32.0853 84.024 29.952 84.024ZM56.7085 83.384C54.6605 83.384 52.9965 82.744 51.7165 81.464C50.4792 80.184 49.8605 78.264 49.8605 75.704C49.8605 74.6373 50.0312 73.2507 50.3725 71.544L57.2205 39.48L66.6925 38.2L59.3325 72.76C59.1618 73.4 59.0765 74.0827 59.0765 74.808C59.0765 75.6613 59.2685 76.28 59.6525 76.664C60.0792 77.0053 60.7618 77.176 61.7005 77.176C62.9378 77.176 64.0898 76.664 65.1565 75.64C66.2232 74.5733 66.9912 73.208 67.4605 71.544H70.1485C68.5698 76.152 66.5432 79.288 64.0685 80.952C61.5938 82.5733 59.1405 83.384 56.7085 83.384ZM81.963 47.544C80.555 47.544 79.3603 47.0533 78.379 46.072C77.3977 45.0907 76.907 43.896 76.907 42.488C76.907 41.08 77.3977 39.8853 78.379 38.904C79.3603 37.88 80.555 37.368 81.963 37.368C83.371 37.368 84.5657 37.88 85.547 38.904C86.571 39.8853 87.083 41.08 87.083 42.488C87.083 43.896 86.571 45.0907 85.547 46.072C84.5657 47.0533 83.371 47.544 81.963 47.544ZM77.611 83.384C75.563 83.384 73.899 82.744 72.619 81.464C71.3817 80.184 70.763 78.264 70.763 75.704C70.763 74.6373 70.9337 73.2507 71.275 71.544L75.627 51H84.843L80.235 72.76C80.0643 73.4 79.979 74.0827 79.979 74.808C79.979 75.6613 80.171 76.28 80.555 76.664C80.9817 77.0053 81.6643 77.176 82.603 77.176C83.8403 77.176 84.9923 76.664 86.059 75.64C87.1257 74.5733 87.8937 73.208 88.363 71.544H91.051C89.4723 76.152 87.4457 79.288 84.971 80.952C82.4963 82.5733 80.043 83.384 77.611 83.384ZM101.329 83.384C98.1722 83.384 95.7188 82.5733 93.9695 80.952C92.2202 79.288 91.3455 76.7067 91.3455 73.208C91.3455 70.264 91.9215 67.0213 93.0735 63.48C94.2682 59.9387 96.1455 56.888 98.7055 54.328C101.308 51.7253 104.593 50.424 108.561 50.424C111.121 50.424 112.935 50.9787 114.001 52.088C115.111 53.1973 115.665 54.6053 115.665 56.312C115.665 57.8053 115.345 58.9573 114.705 59.768C114.065 60.5787 113.255 60.984 112.273 60.984C111.548 60.984 110.801 60.728 110.033 60.216C110.545 58.808 110.801 57.5493 110.801 56.44C110.801 55.6293 110.652 54.9893 110.353 54.52C110.055 54.0507 109.607 53.816 109.009 53.816C107.729 53.816 106.449 54.8613 105.169 56.952C103.889 59.0427 102.844 61.5813 102.033 64.568C101.223 67.5547 100.817 70.2427 100.817 72.632C100.817 74.7227 101.18 76.152 101.905 76.92C102.631 77.6453 103.804 78.008 105.425 78.008C107.729 78.008 109.692 77.4747 111.313 76.408C112.977 75.3413 114.791 73.72 116.753 71.544H118.929C114.193 79.4373 108.327 83.384 101.329 83.384ZM144.644 83.384C141.999 83.384 139.993 82.7653 138.628 81.528C137.263 80.248 136.58 78.4347 136.58 76.088C136.58 75.064 136.708 73.9547 136.964 72.76L137.476 70.264C137.647 69.5387 137.732 68.7493 137.732 67.896C137.732 65.848 136.964 64.824 135.428 64.824C134.745 64.824 134.02 65.016 133.252 65.4C132.527 65.784 131.673 66.3813 130.692 67.192L127.364 83H118.148L127.428 39.48L136.9 38.2L132.1 60.728L144.452 51H150.788L137.988 59.896C138.628 59.7253 139.332 59.64 140.1 59.64C142.404 59.64 144.153 60.344 145.348 61.752C146.543 63.16 147.14 64.952 147.14 67.128C147.14 68.024 147.055 68.8347 146.884 69.56L146.18 72.76C145.967 73.528 145.86 74.2107 145.86 74.808C145.86 76.3867 146.692 77.176 148.356 77.176C149.295 77.176 149.892 77.112 150.148 76.984C150.404 76.856 150.553 76.792 150.596 76.792C150.511 78.2 150.105 79.3947 149.38 80.376C148.697 81.3573 147.887 82.104 146.948 82.616C146.052 83.128 145.284 83.384 144.644 83.384Z" fill="#FF0099"/>
<path d="M169.455 40.248C166.767 40.3333 164.698 41.3573 163.247 43.32C161.839 45.2827 161.135 48.6747 161.135 53.496C161.135 55.0747 161.285 56.184 161.583 56.824C161.882 57.4213 162.031 57.7627 162.031 57.848C159.727 57.848 157.999 57.3787 156.847 56.44C155.738 55.4587 155.183 53.8587 155.183 51.64C155.183 48.6107 155.93 45.8587 157.423 43.384C158.917 40.8667 161.285 38.84 164.527 37.304C167.813 35.768 171.973 35 177.007 35C178.031 35 179.397 35.1067 181.104 35.32C184.176 35.6187 186.352 35.768 187.632 35.768C189.893 35.768 191.813 35.512 193.391 35C193.264 35.384 193.029 36.2373 192.688 37.56C192.346 38.84 191.727 39.9493 190.832 40.888C189.978 41.784 188.805 42.3813 187.312 42.68C184.794 42.68 181.807 42.2747 178.351 41.464L175.663 54.2H185.007L183.983 58.936H174.639L169.455 83H160.239L169.455 40.248ZM194.158 83.384C192.11 83.384 190.446 82.744 189.166 81.464C187.929 80.184 187.31 78.264 187.31 75.704C187.31 74.6373 187.481 73.2507 187.822 71.544L194.67 39.48L204.142 38.2L196.782 72.76C196.612 73.4 196.526 74.0827 196.526 74.808C196.526 75.6613 196.718 76.28 197.102 76.664C197.529 77.0053 198.212 77.176 199.15 77.176C200.388 77.176 201.54 76.664 202.606 75.64C203.673 74.5733 204.441 73.208 204.91 71.544H207.598C206.02 76.152 203.993 79.288 201.518 80.952C199.044 82.5733 196.59 83.384 194.158 83.384ZM218.069 83.256C214.912 83.256 212.416 82.4453 210.581 80.824C208.746 79.2027 207.829 76.6427 207.829 73.144C207.829 70.2427 208.426 67.0213 209.621 63.48C210.816 59.9387 212.736 56.888 215.381 54.328C218.026 51.7253 221.354 50.424 225.365 50.424C230.826 50.424 233.557 53.8373 233.557 60.664V60.728C233.685 60.7707 233.92 60.792 234.261 60.792C235.669 60.792 237.29 60.4293 239.125 59.704C240.96 58.936 242.624 58.0187 244.117 56.952L244.693 58.68C243.456 60.0027 241.834 61.1333 239.829 62.072C237.866 62.968 235.712 63.608 233.365 63.992C233.024 67.8747 232.149 71.2667 230.741 74.168C229.333 77.0693 227.52 79.3093 225.301 80.888C223.082 82.4667 220.672 83.256 218.069 83.256ZM220.629 77.496C221.653 77.496 222.677 76.92 223.701 75.768C224.725 74.5733 225.621 72.9733 226.389 70.968C227.157 68.92 227.712 66.6587 228.053 64.184C226.901 63.928 226.325 63.032 226.325 61.496C226.325 59.7467 226.986 58.5947 228.309 58.04C228.224 56.632 228.01 55.672 227.669 55.16C227.328 54.6053 226.73 54.328 225.877 54.328C224.469 54.328 223.104 55.352 221.781 57.4C220.458 59.448 219.392 61.9013 218.581 64.76C217.77 67.6187 217.365 70.136 217.365 72.312C217.365 74.36 217.6 75.7467 218.069 76.472C218.538 77.1547 219.392 77.496 220.629 77.496ZM249.842 83.384C246.685 83.384 244.231 82.5733 242.482 80.952C240.733 79.288 239.858 76.7067 239.858 73.208C239.858 70.264 240.434 67.0213 241.586 63.48C242.781 59.9387 244.658 56.888 247.218 54.328C249.821 51.7253 253.106 50.424 257.074 50.424C259.634 50.424 261.447 50.9787 262.514 52.088C263.623 53.1973 264.178 54.6053 264.178 56.312C264.178 57.8053 263.858 58.9573 263.218 59.768C262.578 60.5787 261.767 60.984 260.786 60.984C260.061 60.984 259.314 60.728 258.546 60.216C259.058 58.808 259.314 57.5493 259.314 56.44C259.314 55.6293 259.165 54.9893 258.866 54.52C258.567 54.0507 258.119 53.816 257.522 53.816C256.242 53.816 254.962 54.8613 253.682 56.952C252.402 59.0427 251.357 61.5813 250.546 64.568C249.735 67.5547 249.33 70.2427 249.33 72.632C249.33 74.7227 249.693 76.152 250.418 76.92C251.143 77.6453 252.317 78.008 253.938 78.008C256.242 78.008 258.205 77.4747 259.826 76.408C261.49 75.3413 263.303 73.72 265.266 71.544H267.442C262.706 79.4373 256.839 83.384 249.842 83.384ZM293.156 83.384C290.511 83.384 288.506 82.7653 287.14 81.528C285.775 80.248 285.092 78.4347 285.092 76.088C285.092 75.064 285.22 73.9547 285.476 72.76L285.988 70.264C286.159 69.5387 286.244 68.7493 286.244 67.896C286.244 65.848 285.476 64.824 283.94 64.824C283.258 64.824 282.532 65.016 281.764 65.4C281.039 65.784 280.186 66.3813 279.204 67.192L275.876 83H266.66L275.94 39.48L285.413 38.2L280.612 60.728L292.965 51H299.301L286.5 59.896C287.14 59.7253 287.844 59.64 288.612 59.64C290.917 59.64 292.666 60.344 293.861 61.752C295.055 63.16 295.653 64.952 295.653 67.128C295.653 68.024 295.567 68.8347 295.396 69.56L294.692 72.76C294.479 73.528 294.372 74.2107 294.372 74.808C294.372 76.3867 295.204 77.176 296.868 77.176C297.807 77.176 298.405 77.112 298.66 76.984C298.917 76.856 299.066 76.792 299.108 76.792C299.023 78.2 298.618 79.3947 297.892 80.376C297.21 81.3573 296.399 82.104 295.461 82.616C294.565 83.128 293.797 83.384 293.156 83.384Z" fill="#5A8BFF"/>
</svg>
